<svg width="34" height="34" viewBox="0 0 34 34" fill="none" xmlns="http://www.w3.org/2000/svg">
<g id="Drop">
<path id="Vector" d="M22.8342 6.82083C21.2675 5.0114 19.5041 3.38206 17.5768 1.96293C17.4062 1.84341 17.2029 1.7793 16.9946 1.7793C16.7863 1.7793 16.583 1.84341 16.4124 1.96293C14.4886 3.38265 12.7287 5.01197 11.1651 6.82083C7.67831 10.8251 5.83789 15.0463 5.83789 19.029C5.83789 21.9893 7.01386 24.8283 9.1071 26.9216C11.2003 29.0148 14.0394 30.1908 16.9997 30.1908C19.9599 30.1908 22.799 29.0148 24.8922 26.9216C26.9855 24.8283 28.1614 21.9893 28.1614 19.029C28.1614 15.0463 26.321 10.8251 22.8342 6.82083ZM24.0836 20.2137C23.8205 21.6834 23.1134 23.0371 22.0575 24.0928C21.0017 25.1484 19.6477 25.8552 18.178 26.118C18.1239 26.1267 18.0692 26.1313 18.0144 26.132C17.7598 26.1319 17.5146 26.0362 17.3274 25.8638C17.1401 25.6914 17.0245 25.4549 17.0034 25.2013C16.9823 24.9476 17.0574 24.6953 17.2136 24.4944C17.3698 24.2934 17.5959 24.1586 17.8469 24.1165C19.9486 23.7626 21.732 21.9793 22.0884 19.8738C22.1335 19.6083 22.2821 19.3717 22.5017 19.2159C22.7213 19.0601 22.9937 18.9979 23.2591 19.043C23.5245 19.088 23.7612 19.2367 23.917 19.4563C24.0728 19.6758 24.135 19.9483 24.0899 20.2137H24.0836Z" fill="white"/>
</g>
</svg>
