<svg width="24" height="24" viewBox="0 0 24 24" fill="none" xmlns="http://www.w3.org/2000/svg">
<g id="gift-box 1" clip-path="url(#clip0_701_27216)">
<g id="Group">
<g id="Group_2">
<g id="Group_3">
<g id="Group_4">
<path id="Vector" d="M11.2609 4.29995V5.91944C11.2609 6.54527 10.9012 7.11595 10.337 7.38565L8.16306 8.42584C7.38442 8.79873 6.47275 8.28113 6.39332 7.42155L6.30932 6.50682C6.27035 6.08287 6.3584 5.67304 6.54409 5.31788C6.82541 4.78108 6.79049 4.13449 6.45605 3.62908C5.98602 2.91774 5.78518 2.03186 5.95313 1.13736C6.07722 0.477788 6.65327 0 7.32442 0H7.32466C8.11346 0 8.86998 0.313412 9.42767 0.871294L10.1321 1.576C10.8546 2.29845 11.2609 3.27845 11.2609 4.29995Z" fill="url(#paint0_linear_701_27216)"/>
</g>
<path id="Vector_2" d="M11.0801 3.1377H6.18555C6.26178 3.30899 6.35214 3.47322 6.45519 3.62946C6.78978 4.13487 6.82461 4.78146 6.54319 5.31793C6.35778 5.67322 6.26931 6.08311 6.30837 6.50711L6.39261 7.42193C6.47214 8.28123 7.38366 8.79887 8.16202 8.42617L10.3361 7.3857C10.9004 7.11605 11.2599 6.5457 11.2599 5.91981V4.30005C11.2599 3.90193 11.1983 3.5104 11.0801 3.1377Z" fill="url(#paint1_linear_701_27216)"/>
<path id="Vector_3" d="M11.0045 5.21722C11.0045 3.7702 9.72469 2.59717 8.14596 2.59717C7.41599 2.59717 6.75029 2.84832 6.24512 3.26103C6.30785 3.3879 6.37768 3.51114 6.45566 3.62921C6.79006 4.13463 6.82498 4.78122 6.54371 5.31802C6.35801 5.67317 6.27001 6.083 6.30893 6.50696L6.37956 7.27637C6.86587 7.62733 7.479 7.83731 8.14596 7.83731C9.72474 7.83726 11.0045 6.66423 11.0045 5.21722Z" fill="url(#paint2_linear_701_27216)"/>
<path id="Vector_4" d="M9.32807 6.57801C10.554 6.57801 11.5477 5.99937 11.5477 5.28559C11.5477 4.5718 10.554 3.99316 9.32807 3.99316C8.10218 3.99316 7.1084 4.5718 7.1084 5.28559C7.1084 5.99937 8.10218 6.57801 9.32807 6.57801Z" fill="url(#paint3_linear_701_27216)"/>
<g id="Group_5">
<path id="Vector_5" d="M17.4576 5.31788C17.6438 5.67304 17.7318 6.08287 17.6923 6.50682L17.6083 7.42155C17.5294 8.28113 16.6177 8.79868 15.8386 8.42584L13.6651 7.38565C13.1005 7.116 12.7412 6.54527 12.7412 5.91944V4.29977C12.7412 3.27817 13.147 2.29835 13.8694 1.57595L14.5746 0.870965C15.1322 0.313271 15.8886 0 16.6772 0C17.3484 0 17.9244 0.477788 18.0485 1.13732C18.217 2.03181 18.0156 2.91769 17.5456 3.62904C17.2117 4.13449 17.1768 4.78108 17.4576 5.31788Z" fill="url(#paint4_linear_701_27216)"/>
</g>
<path id="Vector_6" d="M17.5469 3.62946C17.65 3.47322 17.7403 3.30899 17.8165 3.1377H12.922C12.8038 3.5104 12.7422 3.90193 12.7422 4.30005V5.91981C12.7422 6.5457 13.1017 7.11605 13.666 7.3857L15.8396 8.42617C16.6189 8.79887 17.5304 8.28123 17.6095 7.42193L17.6932 6.50711C17.7328 6.08311 17.6448 5.67322 17.4584 5.31793C17.178 4.78146 17.2128 4.13487 17.5469 3.62946Z" fill="url(#paint5_linear_701_27216)"/>
<g id="Group_6">
<path id="Vector_7" d="M12.998 5.21722C12.998 3.7702 14.2779 2.59717 15.8566 2.59717C16.5866 2.59717 17.2523 2.84832 17.7574 3.26103C17.6947 3.3879 17.6249 3.51114 17.5469 3.62921C17.2125 4.13463 17.1776 4.78122 17.4588 5.31802C17.6445 5.67317 17.7325 6.083 17.6936 6.50696L17.623 7.27637C17.1367 7.62733 16.5236 7.83731 15.8566 7.83731C14.2778 7.83726 12.998 6.66423 12.998 5.21722Z" fill="url(#paint6_linear_701_27216)"/>
<path id="Vector_8" d="M14.6738 6.57801C15.8997 6.57801 16.8934 5.99937 16.8934 5.28559C16.8934 4.5718 15.8997 3.99316 14.6738 3.99316C13.4479 3.99316 12.4541 4.5718 12.4541 5.28559C12.4541 5.99937 13.4479 6.57801 14.6738 6.57801Z" fill="url(#paint7_linear_701_27216)"/>
</g>
</g>
<g id="Group_7">
<path id="Vector_9" d="M13.7798 5.26029C13.7938 6.2426 13.0087 7.05027 12.0262 7.06429C11.0437 7.07831 10.2359 6.29333 10.2219 5.31102C10.2078 4.32871 10.993 3.52104 11.9755 3.50702C12.958 3.49304 13.7658 4.27798 13.7798 5.26029Z" fill="url(#paint8_linear_701_27216)"/>
</g>
</g>
<g id="Group_8">
<path id="Vector_10" d="M21.7508 23.749H2.24867C1.61945 23.749 1.10938 23.2389 1.10938 22.6097V10.7321C1.10938 10.1028 1.61945 9.59277 2.24867 9.59277H21.7508C22.38 9.59277 22.8901 10.1028 22.8901 10.7321V22.6097C22.8901 23.2389 22.38 23.749 21.7508 23.749Z" fill="url(#paint9_linear_701_27216)"/>
<path id="Vector_11" d="M21.7508 9.59277H2.24867C1.61945 9.59277 1.10938 10.1028 1.10938 10.7321V11.9278C1.10938 11.9278 7.51973 18.6758 12.5419 23.749H21.7508C22.38 23.749 22.8901 23.2389 22.8901 22.6097V10.732C22.8901 10.1028 22.38 9.59277 21.7508 9.59277Z" fill="url(#paint10_linear_701_27216)"/>
<path id="Vector_12" d="M12 9.59277H19.2314V23.749H12V9.59277Z" fill="url(#paint11_linear_701_27216)"/>
<path id="Vector_13" d="M1.10938 18.0234V22.6096C1.10938 23.2389 1.61945 23.7489 2.24867 23.7489H21.7508C22.38 23.7489 22.8901 23.2389 22.8901 22.6096V18.0234H1.10938Z" fill="url(#paint12_linear_701_27216)"/>
<path id="Vector_14" d="M13.6988 23.9999H10.3017C9.96141 23.9999 9.68555 23.7241 9.68555 23.3837V10.209C9.68555 9.86863 9.96141 9.59277 10.3017 9.59277H13.6988C14.0391 9.59277 14.315 9.86863 14.315 10.209V23.3837C14.315 23.7241 14.0391 23.9999 13.6988 23.9999Z" fill="url(#paint13_linear_701_27216)"/>
<path id="Vector_15" d="M9.68555 10.209V20.8388C10.6525 21.8306 11.6209 22.8179 12.5425 23.749H14.1943C14.2699 23.6467 14.3151 23.5206 14.3151 23.3837V10.209C14.3151 9.86863 14.0392 9.59277 13.6989 9.59277H10.3018C9.96141 9.59277 9.68555 9.86863 9.68555 10.209Z" fill="url(#paint14_linear_701_27216)"/>
<path id="Vector_16" d="M22.4165 12.0004H1.58353C0.708988 12.0004 0 11.2914 0 10.4169V8.14212C0 7.26758 0.708988 6.55859 1.58353 6.55859H22.4165C23.291 6.55859 24 7.26758 24 8.14212V10.4169C24 11.2914 23.291 12.0004 22.4165 12.0004Z" fill="url(#paint15_linear_701_27216)"/>
<path id="Vector_17" d="M22.4169 6.55859H8.41867L6.66992 8.30735L10.363 12.0004H22.4169C23.2914 12.0004 24.0004 11.2914 24.0004 10.4169V8.14212C24.0004 7.26753 23.2914 6.55859 22.4169 6.55859Z" fill="url(#paint16_linear_701_27216)"/>
<path id="Vector_18" d="M12 6.55859H19.2314V12.0004H12V6.55859Z" fill="url(#paint17_linear_701_27216)"/>
<path id="Vector_19" d="M21.4198 12H12V7.90869H17.3285L21.4198 12Z" fill="url(#paint18_linear_701_27216)"/>
<path id="Vector_20" d="M14.004 12.2838H9.99661C9.82484 12.2838 9.68555 12.1446 9.68555 11.9728V6.58547C9.68555 6.41371 9.82479 6.27441 9.99661 6.27441H14.004C14.1758 6.27441 14.3151 6.41366 14.3151 6.58547V11.9728C14.3151 12.1445 14.1758 12.2838 14.004 12.2838Z" fill="url(#paint19_linear_701_27216)"/>
<path id="Vector_21" d="M14.3152 6.58547V11.9728C14.3152 12.1445 14.1759 12.2838 14.0041 12.2838H10.6465L9.68555 11.3229V6.58547C9.68555 6.57606 9.68602 6.56712 9.68696 6.55818C9.70061 6.39912 9.83425 6.27441 9.99661 6.27441H14.0041C14.1665 6.27441 14.3001 6.39912 14.3138 6.55818C14.3147 6.56712 14.3152 6.57606 14.3152 6.58547Z" fill="url(#paint20_linear_701_27216)"/>
</g>
<g id="Group_9">
<path id="Vector_22" d="M11.9996 6.27484L11.9624 6.25008C10.6929 5.40684 9.00498 5.5754 7.92734 6.65305L6.67129 7.9091C6.49312 8.08726 6.61934 8.39187 6.87124 8.39187H7.01684C7.49788 8.39187 7.88781 8.7818 7.88781 9.26284C7.88781 9.51479 8.19242 9.64096 8.37058 9.46279L11.1921 6.64124C11.408 6.42533 11.695 6.29512 11.9996 6.27484Z" fill="url(#paint21_linear_701_27216)"/>
<path id="Vector_23" d="M11.999 6.27484L12.0362 6.25008C13.3057 5.40684 14.9937 5.5754 16.0713 6.65305L17.3274 7.9091C17.5055 8.08726 17.3794 8.39187 17.1274 8.39187H16.9818C16.5008 8.39187 16.1108 8.7818 16.1108 9.26284C16.1108 9.51479 15.8062 9.64096 15.6281 9.46279L12.8065 6.64124C12.5906 6.42533 12.3037 6.29512 11.999 6.27484Z" fill="url(#paint22_linear_701_27216)"/>
</g>
</g>
</g>
<defs>
<linearGradient id="paint0_linear_701_27216" x1="6.79242" y1="3.23115" x2="10.9467" y2="7.38546" gradientUnits="userSpaceOnUse">
<stop stop-color="#FEE45A"/>
<stop offset="1" stop-color="#FEA613"/>
</linearGradient>
<linearGradient id="paint1_linear_701_27216" x1="8.58461" y1="4.60061" x2="9.02381" y2="6.5457" gradientUnits="userSpaceOnUse">
<stop stop-color="#FEA613" stop-opacity="0"/>
<stop offset="1" stop-color="#E94444"/>
</linearGradient>
<linearGradient id="paint2_linear_701_27216" x1="9.1254" y1="4.40832" x2="12.7175" y2="1.44018" gradientUnits="userSpaceOnUse">
<stop stop-color="#FEA613" stop-opacity="0"/>
<stop offset="1" stop-color="#E94444"/>
</linearGradient>
<linearGradient id="paint3_linear_701_27216" x1="9.29485" y1="5.45655" x2="9.86826" y2="2.50526" gradientUnits="userSpaceOnUse">
<stop stop-color="#FEA613" stop-opacity="0"/>
<stop offset="1" stop-color="#E94444"/>
</linearGradient>
<linearGradient id="paint4_linear_701_27216" x1="15.0474" y1="3.34565" x2="18.784" y2="7.08221" gradientUnits="userSpaceOnUse">
<stop stop-color="#FEE45A"/>
<stop offset="1" stop-color="#FEA613"/>
</linearGradient>
<linearGradient id="paint5_linear_701_27216" x1="15.5621" y1="4.37864" x2="14.9346" y2="6.3865" gradientUnits="userSpaceOnUse">
<stop stop-color="#FEA613" stop-opacity="0"/>
<stop offset="1" stop-color="#E94444"/>
</linearGradient>
<linearGradient id="paint6_linear_701_27216" x1="14.8772" y1="4.40832" x2="11.285" y2="1.44018" gradientUnits="userSpaceOnUse">
<stop stop-color="#FEA613" stop-opacity="0"/>
<stop offset="1" stop-color="#E94444"/>
</linearGradient>
<linearGradient id="paint7_linear_701_27216" x1="14.707" y1="5.45655" x2="14.1336" y2="2.50526" gradientUnits="userSpaceOnUse">
<stop stop-color="#FEA613" stop-opacity="0"/>
<stop offset="1" stop-color="#E94444"/>
</linearGradient>
<linearGradient id="paint8_linear_701_27216" x1="11.4256" y1="4.4689" x2="13.0913" y2="6.80491" gradientUnits="userSpaceOnUse">
<stop stop-color="#FEE45A"/>
<stop offset="1" stop-color="#FEA613"/>
</linearGradient>
<linearGradient id="paint9_linear_701_27216" x1="9.49427" y1="11.4568" x2="16.459" y2="25.9509" gradientUnits="userSpaceOnUse">
<stop stop-color="#D9B1EE"/>
<stop offset="1" stop-color="#814AA0"/>
</linearGradient>
<linearGradient id="paint10_linear_701_27216" x1="11.9997" y1="19.1529" x2="11.9997" y2="10.9921" gradientUnits="userSpaceOnUse">
<stop stop-color="#5B3374" stop-opacity="0"/>
<stop offset="1" stop-color="#5B3374"/>
</linearGradient>
<linearGradient id="paint11_linear_701_27216" x1="17.3176" y1="16.6708" x2="13.9514" y2="16.6708" gradientUnits="userSpaceOnUse">
<stop stop-color="#5B3374" stop-opacity="0"/>
<stop offset="1" stop-color="#5B3374"/>
</linearGradient>
<linearGradient id="paint12_linear_701_27216" x1="11.9997" y1="21.3019" x2="11.9997" y2="23.4979" gradientUnits="userSpaceOnUse">
<stop stop-color="#5B3374" stop-opacity="0"/>
<stop offset="1" stop-color="#5B3374"/>
</linearGradient>
<linearGradient id="paint13_linear_701_27216" x1="9.68555" y1="16.7964" x2="14.315" y2="16.7964" gradientUnits="userSpaceOnUse">
<stop stop-color="#FEE45A"/>
<stop offset="1" stop-color="#FEA613"/>
</linearGradient>
<linearGradient id="paint14_linear_701_27216" x1="12.0003" y1="16.0313" x2="12.0003" y2="11.3417" gradientUnits="userSpaceOnUse">
<stop stop-color="#FEA613" stop-opacity="0"/>
<stop offset="1" stop-color="#E94444"/>
</linearGradient>
<linearGradient id="paint15_linear_701_27216" x1="12" y1="6.77685" x2="12" y2="12.3806" gradientUnits="userSpaceOnUse">
<stop stop-color="#D9B1EE"/>
<stop offset="1" stop-color="#814AA0"/>
</linearGradient>
<linearGradient id="paint16_linear_701_27216" x1="15.649" y1="8.46175" x2="12.2607" y2="3.33233" gradientUnits="userSpaceOnUse">
<stop stop-color="#5B3374" stop-opacity="0"/>
<stop offset="1" stop-color="#5B3374"/>
</linearGradient>
<linearGradient id="paint17_linear_701_27216" x1="17.3176" y1="9.27949" x2="13.9514" y2="9.27949" gradientUnits="userSpaceOnUse">
<stop stop-color="#5B3374" stop-opacity="0"/>
<stop offset="1" stop-color="#5B3374"/>
</linearGradient>
<linearGradient id="paint18_linear_701_27216" x1="16.9326" y1="12.6895" x2="15.4737" y2="8.17189" gradientUnits="userSpaceOnUse">
<stop stop-color="#5B3374" stop-opacity="0"/>
<stop offset="1" stop-color="#5B3374"/>
</linearGradient>
<linearGradient id="paint19_linear_701_27216" x1="10.813" y1="8.40839" x2="13.6365" y2="10.479" gradientUnits="userSpaceOnUse">
<stop stop-color="#FEE45A"/>
<stop offset="1" stop-color="#FEA613"/>
</linearGradient>
<linearGradient id="paint20_linear_701_27216" x1="13.0035" y1="11.045" x2="11.027" y2="6.85677" gradientUnits="userSpaceOnUse">
<stop stop-color="#FEA613" stop-opacity="0"/>
<stop offset="1" stop-color="#E94444"/>
</linearGradient>
<linearGradient id="paint21_linear_701_27216" x1="8.62061" y1="6.57747" x2="9.79802" y2="7.75489" gradientUnits="userSpaceOnUse">
<stop stop-color="#FEE45A"/>
<stop offset="1" stop-color="#FEA613"/>
</linearGradient>
<linearGradient id="paint22_linear_701_27216" x1="15.378" y1="6.57747" x2="14.2006" y2="7.75489" gradientUnits="userSpaceOnUse">
<stop stop-color="#FEE45A"/>
<stop offset="1" stop-color="#FEA613"/>
</linearGradient>
<clipPath id="clip0_701_27216">
<rect width="24" height="24" fill="white"/>
</clipPath>
</defs>
</svg>
