<svg width="32" height="32" viewBox="0 0 32 32" fill="none" xmlns="http://www.w3.org/2000/svg">
<g id="technician (1) 1">
<g id="_x36_1_Technician">
<g id="Group">
<path id="Vector" d="M8.83934 8.38982C9.50711 8.85794 10.3619 10.1357 12.178 10.1357H18.6357C20.4518 10.1357 21.3039 8.85989 21.9744 8.38982H21.9745C22.0512 6.60565 21.5233 4.8236 20.3925 3.0406C19.7105 1.96529 18.506 1.3335 17.2326 1.3335H13.5811C12.3078 1.3335 11.1033 1.96529 10.4213 3.0406C9.29045 4.8236 8.76257 6.60565 8.83934 8.38982Z" fill="white"/>
<path id="Vector_2" d="M9.2262 10.7125C9.48207 13.4421 10.4397 17.5341 13.7846 19.3331C14.7764 19.8665 15.9834 19.8764 16.9764 19.3453C19.9989 17.7289 21.2265 14.1425 21.5556 10.716C22.5414 10.7049 23.1155 9.57523 22.5055 8.77734C21.7769 9.28491 20.7705 10.7754 18.6368 10.7754H12.1792C10.0455 10.7754 9.0395 9.28532 8.31044 8.77734C7.71215 9.55933 8.25009 10.6739 9.2262 10.7125Z" fill="white"/>
<path id="Vector_3" d="M24.5509 29.8937C24.3334 29.8201 24.1255 29.7337 23.924 29.6346L23.5753 29.9129C23.3802 30.0664 23.1403 30.1495 22.8972 30.1495C22.6061 30.1495 22.3342 30.0344 22.1263 29.8297L21.5281 29.2314C21.141 28.8412 21.1026 28.2207 21.4449 27.7857L21.7232 27.4338C21.624 27.2322 21.5377 27.0243 21.4641 26.8099L21.0259 26.7588C20.4751 26.6945 20.0598 26.2279 20.0598 25.6734V24.8363C20.0598 24.2829 20.4757 23.8159 21.0259 23.7552L21.4641 23.7039C21.5377 23.4865 21.624 23.2786 21.7232 23.077L21.4481 22.7315C21.1026 22.2933 21.141 21.6695 21.528 21.2825L22.1262 20.6843C22.3658 20.4448 22.6903 20.3325 23.0312 20.3722C23.2424 20.3968 23.4394 20.493 23.6061 20.6249L23.9239 20.8763C24.119 20.7803 24.3237 20.6971 24.5317 20.6267C23.4461 20.0693 22.8415 19.9547 20.5612 19.3871C19.9629 19.2381 19.3358 19.4179 18.8897 19.8435C16.6334 21.9968 14.2138 22.0164 11.9348 19.8947C11.4702 19.4622 10.8241 19.286 10.214 19.4612C9.56103 19.6488 8.81537 19.8509 8.03874 20.0541C4.14911 21.0906 1.43652 24.6093 1.43652 28.6398C1.43652 29.7498 2.33856 30.6518 3.45178 30.6518C3.45178 30.6518 18.4573 30.6549 24.6949 30.6582C24.647 30.5558 24.6118 30.447 24.599 30.3319L24.5509 29.8937Z" fill="white"/>
<path id="Vector_4" d="M28.2807 29.6333C28.0797 29.7342 27.8709 29.8204 27.6553 29.8922C27.6032 30.2933 27.6148 30.4272 27.5225 30.6498C28.0311 30.6079 28.4853 30.3773 28.8164 30.0278C28.7517 29.9952 28.6891 29.9582 28.6317 29.9132L28.2807 29.6333Z" fill="white"/>
<path id="Vector_5" d="M31.1066 24.3889L30.24 24.2892C30.1361 23.8386 29.9584 23.4053 29.7115 23.0153L30.2574 22.3307C30.4003 22.1488 30.383 21.8932 30.2227 21.7329L29.6247 21.135C29.4644 20.9747 29.2088 20.9573 29.0268 21.1003L28.3422 21.6462C27.9523 21.3993 27.519 21.2216 27.0684 21.1177L26.9687 20.2511C26.9428 20.0215 26.7521 19.8525 26.5224 19.8525H25.6819C25.4523 19.8525 25.2617 20.0215 25.2357 20.2511L25.136 21.1177C24.6853 21.2217 24.2521 21.3993 23.8621 21.6463L23.1776 21.1004C22.9956 20.9575 22.74 20.9748 22.5797 21.135L21.9817 21.7329C21.8214 21.8932 21.8041 22.1489 21.947 22.3309L22.4929 23.0154C22.2459 23.4054 22.0683 23.8387 21.9643 24.2892L21.0978 24.389C20.8682 24.4149 20.6992 24.6056 20.6992 24.8352V25.6758C20.6992 25.9054 20.8682 26.096 21.0978 26.1221L21.9643 26.2217C22.0683 26.6723 22.2459 27.1056 22.4929 27.4955L21.947 28.1801C21.8041 28.3621 21.8214 28.6177 21.9817 28.778L22.5797 29.3759C22.74 29.5362 22.9956 29.5536 23.1776 29.4106L23.8621 28.8647C24.2521 29.1116 24.6853 29.2893 25.136 29.3932L25.2357 30.2597C25.2617 30.4893 25.4523 30.6583 25.6819 30.6583C26.1154 30.6002 26.9006 30.8614 26.9687 30.2597L27.0685 29.3932C27.5192 29.2892 27.9524 29.1116 28.3424 28.8647L29.027 29.4106C29.209 29.5536 29.4646 29.5362 29.6249 29.3759L30.2228 28.778C30.3831 28.6177 30.4004 28.362 30.2575 28.1801L29.7116 27.4955C29.9586 27.1055 30.1362 26.6723 30.2402 26.2217L31.1067 26.122C31.3363 26.096 31.5053 25.9053 31.5053 25.6757V24.8351C31.5052 24.6055 31.3362 24.4149 31.1066 24.3889ZM27.4969 26.6492C26.7249 27.4213 25.4761 27.4213 24.7041 26.6493C23.932 25.8824 23.932 24.6285 24.7041 23.8617C25.4761 23.0896 26.7249 23.0896 27.4969 23.8617C28.2637 24.6285 28.2637 25.8824 27.4969 26.6492Z" fill="white"/>
</g>
</g>
</g>
</svg>
