<svg width="18" height="19" viewBox="0 0 18 19" fill="none" xmlns="http://www.w3.org/2000/svg">
<g id="vuesax/bold/truck-fast">
<g id="truck-fast">
<path id="Vector" d="M16.125 12.125C16.335 12.125 16.5 12.29 16.5 12.5V13.25C16.5 14.495 15.495 15.5 14.25 15.5C14.25 14.2625 13.2375 13.25 12 13.25C10.7625 13.25 9.75 14.2625 9.75 15.5H8.25C8.25 14.2625 7.2375 13.25 6 13.25C4.7625 13.25 3.75 14.2625 3.75 15.5C2.505 15.5 1.5 14.495 1.5 13.25V11.75C1.5 11.3375 1.8375 11 2.25 11H9.375C10.41 11 11.25 10.16 11.25 9.125V5C11.25 4.5875 11.5875 4.25 12 4.25H12.63C13.17 4.25 13.665 4.5425 13.935 5.0075L14.415 5.8475C14.4825 5.9675 14.3925 6.125 14.25 6.125C13.215 6.125 12.375 6.965 12.375 8V10.25C12.375 11.285 13.215 12.125 14.25 12.125H16.125Z" fill="#4548B9"/>
<path id="Vector_2" d="M6 17C6.82843 17 7.5 16.3284 7.5 15.5C7.5 14.6716 6.82843 14 6 14C5.17157 14 4.5 14.6716 4.5 15.5C4.5 16.3284 5.17157 17 6 17Z" fill="#4548B9"/>
<path id="Vector_3" d="M12 17C12.8284 17 13.5 16.3284 13.5 15.5C13.5 14.6716 12.8284 14 12 14C11.1716 14 10.5 14.6716 10.5 15.5C10.5 16.3284 11.1716 17 12 17Z" fill="#4548B9"/>
<path id="Vector_4" d="M16.5 9.8975V11H14.25C13.8375 11 13.5 10.6625 13.5 10.25V8C13.5 7.5875 13.8375 7.25 14.25 7.25H15.2175L16.305 9.155C16.4325 9.38 16.5 9.635 16.5 9.8975Z" fill="#4548B9"/>
<g id="Group">
<path id="Vector_5" d="M9.81 2H4.2675C2.925 2 1.8 2.96 1.5525 4.235H4.83C5.115 4.235 5.34 4.4675 5.34 4.7525C5.34 5.0375 5.115 5.2625 4.83 5.2625H1.5V6.2975H3.45C3.735 6.2975 3.9675 6.53 3.9675 6.815C3.9675 7.1 3.735 7.325 3.45 7.325H1.5V8.36H2.0775C2.3625 8.36 2.595 8.5925 2.595 8.8775C2.595 9.1625 2.3625 9.3875 2.0775 9.3875H1.5V9.56C1.5 9.9725 1.8375 10.31 2.25 10.31H9.1125C9.8775 10.31 10.5 9.6875 10.5 8.9225V2.69C10.5 2.3075 10.1925 2 9.81 2Z" fill="#4548B9"/>
<path id="Vector_6" d="M1.5525 4.23499H1.44H0.705C0.42 4.23499 0.1875 4.46749 0.1875 4.75249C0.1875 5.03749 0.42 5.26249 0.705 5.26249H1.3875H1.5V4.76749C1.5 4.58749 1.5225 4.40749 1.5525 4.23499Z" fill="#4548B9"/>
<path id="Vector_7" d="M1.3875 6.29749H0.705C0.42 6.29749 0.1875 6.52999 0.1875 6.81499C0.1875 7.09999 0.42 7.32499 0.705 7.32499H1.3875H1.5V6.29749H1.3875Z" fill="#4548B9"/>
<path id="Vector_8" d="M1.3875 8.35999H0.705C0.42 8.35999 0.1875 8.59249 0.1875 8.87749C0.1875 9.16249 0.42 9.38749 0.705 9.38749H1.3875H1.5V8.35999H1.3875Z" fill="#4548B9"/>
</g>
</g>
</g>
</svg>
